<mxfile host="app.diagrams.net" agent="Mozilla/5.0 (Windows NT 10.0; Win64; x64) AppleWebKit/537.36 (KHTML, like Gecko) Chrome/137.0.0.0 Safari/537.36 Edg/137.0.0.0" version="27.1.3" pages="5">
  <diagram name="图3-3" id="SFmPQN-QUfsM4tf-Z6S2">
    <mxGraphModel dx="1066" dy="577" grid="1" gridSize="10" guides="1" tooltips="1" connect="1" arrows="1" fold="1" page="1" pageScale="1" pageWidth="1200" pageHeight="1920" math="0" shadow="0">
      <root>
        <mxCell id="0" />
        <mxCell id="1" parent="0" />
        <mxCell id="jjJpaKG2DIV51PgyevEr-9" value="alt" style="shape=umlFrame;whiteSpace=wrap;html=1;pointerEvents=0;recursiveResize=0;container=1;collapsible=0;width=51;dashed=1;height=18;fontSize=18;fontFamily=宋体;dashPattern=1 1;" vertex="1" parent="1">
          <mxGeometry x="380" y="230" width="290" height="120" as="geometry" />
        </mxCell>
        <mxCell id="jjJpaKG2DIV51PgyevEr-11" value="" style="line;strokeWidth=1;dashed=1;labelPosition=center;verticalLabelPosition=bottom;align=left;verticalAlign=top;spacingLeft=20;spacingTop=15;html=1;whiteSpace=wrap;fontSize=18;fontFamily=宋体;" vertex="1" parent="jjJpaKG2DIV51PgyevEr-9">
          <mxGeometry y="70" width="287" height="10" as="geometry" />
        </mxCell>
        <mxCell id="jjJpaKG2DIV51PgyevEr-25" value="用户" style="shape=umlLifeline;perimeter=lifelinePerimeter;whiteSpace=wrap;html=1;container=1;dropTarget=0;collapsible=0;recursiveResize=0;outlineConnect=0;portConstraint=eastwest;newEdgeStyle={&quot;curved&quot;:0,&quot;rounded&quot;:0};fontSize=18;fontStyle=0;fontFamily=宋体;" vertex="1" parent="1">
          <mxGeometry x="360" y="182.5" width="100" height="440" as="geometry" />
        </mxCell>
        <mxCell id="jjJpaKG2DIV51PgyevEr-34" value="" style="html=1;points=[[0,0,0,0,5],[0,1,0,0,-5],[1,0,0,0,5],[1,1,0,0,-5]];perimeter=orthogonalPerimeter;outlineConnect=0;targetShapes=umlLifeline;portConstraint=eastwest;newEdgeStyle={&quot;curved&quot;:0,&quot;rounded&quot;:0};fontFamily=宋体;fontSize=18;" vertex="1" parent="jjJpaKG2DIV51PgyevEr-25">
          <mxGeometry x="45" y="67.5" width="10" height="92.5" as="geometry" />
        </mxCell>
        <mxCell id="jjJpaKG2DIV51PgyevEr-56" value="" style="html=1;points=[[0,0,0,0,5],[0,1,0,0,-5],[1,0,0,0,5],[1,1,0,0,-5]];perimeter=orthogonalPerimeter;outlineConnect=0;targetShapes=umlLifeline;portConstraint=eastwest;newEdgeStyle={&quot;curved&quot;:0,&quot;rounded&quot;:0};fontFamily=宋体;fontSize=18;" vertex="1" parent="jjJpaKG2DIV51PgyevEr-25">
          <mxGeometry x="45" y="267.5" width="10" height="112.5" as="geometry" />
        </mxCell>
        <mxCell id="jjJpaKG2DIV51PgyevEr-27" value="系统" style="shape=umlLifeline;perimeter=lifelinePerimeter;whiteSpace=wrap;html=1;container=1;dropTarget=0;collapsible=0;recursiveResize=0;outlineConnect=0;portConstraint=eastwest;newEdgeStyle={&quot;curved&quot;:0,&quot;rounded&quot;:0};fontSize=18;fontStyle=0;fontFamily=宋体;" vertex="1" parent="1">
          <mxGeometry x="580" y="182.5" width="100" height="430" as="geometry" />
        </mxCell>
        <mxCell id="jjJpaKG2DIV51PgyevEr-31" value="" style="html=1;points=[[0,0,0,0,5],[0,1,0,0,-5],[1,0,0,0,5],[1,1,0,0,-5]];perimeter=orthogonalPerimeter;outlineConnect=0;targetShapes=umlLifeline;portConstraint=eastwest;newEdgeStyle={&quot;curved&quot;:0,&quot;rounded&quot;:0};fontFamily=宋体;fontSize=18;" vertex="1" parent="jjJpaKG2DIV51PgyevEr-27">
          <mxGeometry x="45" y="67.5" width="10" height="92.5" as="geometry" />
        </mxCell>
        <mxCell id="jjJpaKG2DIV51PgyevEr-60" value="" style="html=1;points=[[0,0,0,0,5],[0,1,0,0,-5],[1,0,0,0,5],[1,1,0,0,-5]];perimeter=orthogonalPerimeter;outlineConnect=0;targetShapes=umlLifeline;portConstraint=eastwest;newEdgeStyle={&quot;curved&quot;:0,&quot;rounded&quot;:0};fontFamily=宋体;fontSize=18;" vertex="1" parent="jjJpaKG2DIV51PgyevEr-27">
          <mxGeometry x="45" y="267.5" width="10" height="112.5" as="geometry" />
        </mxCell>
        <mxCell id="jjJpaKG2DIV51PgyevEr-32" value="&lt;span&gt;提交注册信息&lt;/span&gt;" style="html=1;verticalAlign=bottom;endArrow=block;curved=0;rounded=0;entryX=0;entryY=0;entryDx=0;entryDy=5;fontFamily=宋体;fontSize=18;" edge="1" target="jjJpaKG2DIV51PgyevEr-31" parent="1" source="jjJpaKG2DIV51PgyevEr-34">
          <mxGeometry relative="1" as="geometry">
            <mxPoint x="555" y="445" as="sourcePoint" />
          </mxGeometry>
        </mxCell>
        <mxCell id="jjJpaKG2DIV51PgyevEr-33" value="注册成功，请登录" style="html=1;verticalAlign=bottom;endArrow=open;dashed=1;endSize=8;curved=0;rounded=0;fontFamily=宋体;fontSize=18;" edge="1" parent="1">
          <mxGeometry relative="1" as="geometry">
            <mxPoint x="415" y="289.3099999999999" as="targetPoint" />
            <mxPoint x="625" y="289.3099999999999" as="sourcePoint" />
          </mxGeometry>
        </mxCell>
        <mxCell id="jjJpaKG2DIV51PgyevEr-37" value="注册失败，请修正" style="html=1;verticalAlign=bottom;endArrow=open;dashed=1;endSize=8;curved=0;rounded=0;fontFamily=宋体;fontSize=18;" edge="1" parent="1">
          <mxGeometry relative="1" as="geometry">
            <mxPoint x="415" y="329.9999999999999" as="targetPoint" />
            <mxPoint x="625" y="329.9999999999999" as="sourcePoint" />
          </mxGeometry>
        </mxCell>
        <mxCell id="jjJpaKG2DIV51PgyevEr-61" value="提交登录信息" style="html=1;verticalAlign=bottom;endArrow=block;curved=0;rounded=0;entryX=0;entryY=0;entryDx=0;entryDy=5;exitX=1;exitY=0;exitDx=0;exitDy=5;exitPerimeter=0;fontFamily=宋体;fontSize=18;" edge="1" target="jjJpaKG2DIV51PgyevEr-60" parent="1" source="jjJpaKG2DIV51PgyevEr-56">
          <mxGeometry relative="1" as="geometry">
            <mxPoint x="470" y="505" as="sourcePoint" />
          </mxGeometry>
        </mxCell>
        <mxCell id="jjJpaKG2DIV51PgyevEr-63" value="登录失败请重试" style="html=1;verticalAlign=bottom;endArrow=open;dashed=1;endSize=8;curved=0;rounded=0;fontFamily=宋体;fontSize=18;" edge="1" parent="1">
          <mxGeometry relative="1" as="geometry">
            <mxPoint x="415" y="550" as="targetPoint" />
            <mxPoint x="625" y="550" as="sourcePoint" />
          </mxGeometry>
        </mxCell>
        <mxCell id="jjJpaKG2DIV51PgyevEr-64" value="alt" style="shape=umlFrame;whiteSpace=wrap;html=1;pointerEvents=0;recursiveResize=0;container=1;collapsible=0;width=51;dashed=1;height=18;fontSize=18;fontFamily=宋体;dashPattern=1 1;" vertex="1" parent="1">
          <mxGeometry x="375" y="420" width="300" height="145" as="geometry" />
        </mxCell>
        <mxCell id="jjJpaKG2DIV51PgyevEr-65" value="" style="line;strokeWidth=1;dashed=1;labelPosition=center;verticalLabelPosition=bottom;align=left;verticalAlign=top;spacingLeft=20;spacingTop=15;html=1;whiteSpace=wrap;fontSize=18;fontFamily=宋体;" vertex="1" parent="jjJpaKG2DIV51PgyevEr-64">
          <mxGeometry y="90" width="287" height="10" as="geometry" />
        </mxCell>
        <mxCell id="jjJpaKG2DIV51PgyevEr-62" value="登录成功，进入首页" style="html=1;verticalAlign=bottom;endArrow=open;dashed=1;endSize=8;curved=0;rounded=0;fontFamily=宋体;fontSize=18;" edge="1" parent="jjJpaKG2DIV51PgyevEr-64">
          <mxGeometry relative="1" as="geometry">
            <mxPoint x="38.5" y="70" as="targetPoint" />
            <mxPoint x="248.5" y="70" as="sourcePoint" />
          </mxGeometry>
        </mxCell>
      </root>
    </mxGraphModel>
  </diagram>
  <diagram id="CyAyQ5x-FfY8F36e_3UX" name="图3-4">
    <mxGraphModel dx="1546" dy="836" grid="1" gridSize="10" guides="1" tooltips="1" connect="1" arrows="1" fold="1" page="1" pageScale="1" pageWidth="1200" pageHeight="1920" math="0" shadow="0">
      <root>
        <mxCell id="0" />
        <mxCell id="1" parent="0" />
        <mxCell id="epAysZkqnSIW3r6k0jum-3" value="用户" style="shape=umlLifeline;perimeter=lifelinePerimeter;whiteSpace=wrap;html=1;container=1;dropTarget=0;collapsible=0;recursiveResize=0;outlineConnect=0;portConstraint=eastwest;newEdgeStyle={&quot;curved&quot;:0,&quot;rounded&quot;:0};fontSize=18;fontStyle=0;fontFamily=宋体;" vertex="1" parent="1">
          <mxGeometry x="370" y="190" width="100" height="440" as="geometry" />
        </mxCell>
        <mxCell id="epAysZkqnSIW3r6k0jum-4" value="" style="html=1;points=[[0,0,0,0,5],[0,1,0,0,-5],[1,0,0,0,5],[1,1,0,0,-5]];perimeter=orthogonalPerimeter;outlineConnect=0;targetShapes=umlLifeline;portConstraint=eastwest;newEdgeStyle={&quot;curved&quot;:0,&quot;rounded&quot;:0};fontFamily=宋体;fontSize=18;" vertex="1" parent="epAysZkqnSIW3r6k0jum-3">
          <mxGeometry x="45" y="67.5" width="10" height="92.5" as="geometry" />
        </mxCell>
        <mxCell id="epAysZkqnSIW3r6k0jum-5" value="" style="html=1;points=[[0,0,0,0,5],[0,1,0,0,-5],[1,0,0,0,5],[1,1,0,0,-5]];perimeter=orthogonalPerimeter;outlineConnect=0;targetShapes=umlLifeline;portConstraint=eastwest;newEdgeStyle={&quot;curved&quot;:0,&quot;rounded&quot;:0};fontFamily=宋体;fontSize=18;" vertex="1" parent="epAysZkqnSIW3r6k0jum-3">
          <mxGeometry x="45" y="267.5" width="10" height="112.5" as="geometry" />
        </mxCell>
        <mxCell id="epAysZkqnSIW3r6k0jum-6" value="系统" style="shape=umlLifeline;perimeter=lifelinePerimeter;whiteSpace=wrap;html=1;container=1;dropTarget=0;collapsible=0;recursiveResize=0;outlineConnect=0;portConstraint=eastwest;newEdgeStyle={&quot;curved&quot;:0,&quot;rounded&quot;:0};fontSize=18;fontStyle=0;fontFamily=宋体;" vertex="1" parent="1">
          <mxGeometry x="590" y="190" width="100" height="430" as="geometry" />
        </mxCell>
        <mxCell id="epAysZkqnSIW3r6k0jum-7" value="" style="html=1;points=[[0,0,0,0,5],[0,1,0,0,-5],[1,0,0,0,5],[1,1,0,0,-5]];perimeter=orthogonalPerimeter;outlineConnect=0;targetShapes=umlLifeline;portConstraint=eastwest;newEdgeStyle={&quot;curved&quot;:0,&quot;rounded&quot;:0};fontFamily=宋体;fontSize=18;" vertex="1" parent="epAysZkqnSIW3r6k0jum-6">
          <mxGeometry x="45" y="67.5" width="10" height="92.5" as="geometry" />
        </mxCell>
        <mxCell id="epAysZkqnSIW3r6k0jum-8" value="" style="html=1;points=[[0,0,0,0,5],[0,1,0,0,-5],[1,0,0,0,5],[1,1,0,0,-5]];perimeter=orthogonalPerimeter;outlineConnect=0;targetShapes=umlLifeline;portConstraint=eastwest;newEdgeStyle={&quot;curved&quot;:0,&quot;rounded&quot;:0};fontFamily=宋体;fontSize=18;" vertex="1" parent="epAysZkqnSIW3r6k0jum-6">
          <mxGeometry x="45" y="267.5" width="10" height="112.5" as="geometry" />
        </mxCell>
        <mxCell id="epAysZkqnSIW3r6k0jum-9" value="访问首页并请求车辆列表" style="html=1;verticalAlign=bottom;endArrow=block;curved=0;rounded=0;entryX=0;entryY=0;entryDx=0;entryDy=5;fontFamily=宋体;fontSize=18;" edge="1" parent="1" source="epAysZkqnSIW3r6k0jum-4" target="epAysZkqnSIW3r6k0jum-7">
          <mxGeometry relative="1" as="geometry">
            <mxPoint x="565" y="452.5" as="sourcePoint" />
          </mxGeometry>
        </mxCell>
        <mxCell id="epAysZkqnSIW3r6k0jum-10" value="展示完整车辆数据" style="html=1;verticalAlign=bottom;endArrow=open;dashed=1;endSize=8;curved=0;rounded=0;fontFamily=宋体;fontSize=18;" edge="1" parent="1">
          <mxGeometry relative="1" as="geometry">
            <mxPoint x="425" y="319.99999999999994" as="targetPoint" />
            <mxPoint x="635" y="319.99999999999994" as="sourcePoint" />
          </mxGeometry>
        </mxCell>
        <mxCell id="epAysZkqnSIW3r6k0jum-12" value="提交查询条件" style="html=1;verticalAlign=bottom;endArrow=block;curved=0;rounded=0;entryX=0;entryY=0;entryDx=0;entryDy=5;exitX=1;exitY=0;exitDx=0;exitDy=5;exitPerimeter=0;fontFamily=宋体;fontSize=18;" edge="1" parent="1" source="epAysZkqnSIW3r6k0jum-5" target="epAysZkqnSIW3r6k0jum-8">
          <mxGeometry relative="1" as="geometry">
            <mxPoint x="480" y="512.5" as="sourcePoint" />
          </mxGeometry>
        </mxCell>
        <mxCell id="epAysZkqnSIW3r6k0jum-14" value="loop" style="shape=umlFrame;whiteSpace=wrap;html=1;pointerEvents=0;recursiveResize=0;container=1;collapsible=0;width=51;dashed=1;height=18;fontSize=18;fontFamily=宋体;dashPattern=1 1;" vertex="1" parent="1">
          <mxGeometry x="385" y="427.5" width="300" height="145" as="geometry" />
        </mxCell>
        <mxCell id="epAysZkqnSIW3r6k0jum-13" value="更新显示匹配结果" style="html=1;verticalAlign=bottom;endArrow=open;dashed=1;endSize=8;curved=0;rounded=0;fontFamily=宋体;fontSize=18;" edge="1" parent="epAysZkqnSIW3r6k0jum-14">
          <mxGeometry relative="1" as="geometry">
            <mxPoint x="40" y="102.5" as="targetPoint" />
            <mxPoint x="250" y="102.5" as="sourcePoint" />
            <mxPoint as="offset" />
          </mxGeometry>
        </mxCell>
      </root>
    </mxGraphModel>
  </diagram>
  <diagram id="mQwIXU6XtE3uNr4pRyRA" name="图3-5">
    <mxGraphModel dx="1546" dy="836" grid="1" gridSize="10" guides="1" tooltips="1" connect="1" arrows="1" fold="1" page="1" pageScale="1" pageWidth="1200" pageHeight="1920" math="0" shadow="0">
      <root>
        <mxCell id="0" />
        <mxCell id="1" parent="0" />
        <mxCell id="7xC3x3erYgO6L5aWRIEA-1" value="alt" style="shape=umlFrame;whiteSpace=wrap;html=1;pointerEvents=0;recursiveResize=0;container=1;collapsible=0;width=51;dashed=1;height=18;fontSize=18;fontFamily=宋体;dashPattern=1 1;" vertex="1" parent="1">
          <mxGeometry x="840" y="867.5" width="290" height="120" as="geometry" />
        </mxCell>
        <mxCell id="7xC3x3erYgO6L5aWRIEA-2" value="" style="line;strokeWidth=1;dashed=1;labelPosition=center;verticalLabelPosition=bottom;align=left;verticalAlign=top;spacingLeft=20;spacingTop=15;html=1;whiteSpace=wrap;fontSize=18;fontFamily=宋体;" vertex="1" parent="7xC3x3erYgO6L5aWRIEA-1">
          <mxGeometry y="70" width="287" height="10" as="geometry" />
        </mxCell>
        <mxCell id="7xC3x3erYgO6L5aWRIEA-3" value="用户" style="shape=umlLifeline;perimeter=lifelinePerimeter;whiteSpace=wrap;html=1;container=1;dropTarget=0;collapsible=0;recursiveResize=0;outlineConnect=0;portConstraint=eastwest;newEdgeStyle={&quot;curved&quot;:0,&quot;rounded&quot;:0};fontSize=18;fontStyle=0;fontFamily=宋体;" vertex="1" parent="1">
          <mxGeometry x="820" y="820" width="100" height="440" as="geometry" />
        </mxCell>
        <mxCell id="7xC3x3erYgO6L5aWRIEA-4" value="" style="html=1;points=[[0,0,0,0,5],[0,1,0,0,-5],[1,0,0,0,5],[1,1,0,0,-5]];perimeter=orthogonalPerimeter;outlineConnect=0;targetShapes=umlLifeline;portConstraint=eastwest;newEdgeStyle={&quot;curved&quot;:0,&quot;rounded&quot;:0};fontFamily=宋体;fontSize=18;" vertex="1" parent="7xC3x3erYgO6L5aWRIEA-3">
          <mxGeometry x="45" y="67.5" width="10" height="92.5" as="geometry" />
        </mxCell>
        <mxCell id="7xC3x3erYgO6L5aWRIEA-5" value="" style="html=1;points=[[0,0,0,0,5],[0,1,0,0,-5],[1,0,0,0,5],[1,1,0,0,-5]];perimeter=orthogonalPerimeter;outlineConnect=0;targetShapes=umlLifeline;portConstraint=eastwest;newEdgeStyle={&quot;curved&quot;:0,&quot;rounded&quot;:0};fontFamily=宋体;fontSize=18;" vertex="1" parent="7xC3x3erYgO6L5aWRIEA-3">
          <mxGeometry x="45" y="267.5" width="10" height="112.5" as="geometry" />
        </mxCell>
        <mxCell id="7xC3x3erYgO6L5aWRIEA-6" value="系统" style="shape=umlLifeline;perimeter=lifelinePerimeter;whiteSpace=wrap;html=1;container=1;dropTarget=0;collapsible=0;recursiveResize=0;outlineConnect=0;portConstraint=eastwest;newEdgeStyle={&quot;curved&quot;:0,&quot;rounded&quot;:0};fontSize=18;fontStyle=0;fontFamily=宋体;" vertex="1" parent="1">
          <mxGeometry x="1040" y="820" width="100" height="430" as="geometry" />
        </mxCell>
        <mxCell id="7xC3x3erYgO6L5aWRIEA-7" value="" style="html=1;points=[[0,0,0,0,5],[0,1,0,0,-5],[1,0,0,0,5],[1,1,0,0,-5]];perimeter=orthogonalPerimeter;outlineConnect=0;targetShapes=umlLifeline;portConstraint=eastwest;newEdgeStyle={&quot;curved&quot;:0,&quot;rounded&quot;:0};fontFamily=宋体;fontSize=18;" vertex="1" parent="7xC3x3erYgO6L5aWRIEA-6">
          <mxGeometry x="45" y="67.5" width="10" height="92.5" as="geometry" />
        </mxCell>
        <mxCell id="7xC3x3erYgO6L5aWRIEA-8" value="" style="html=1;points=[[0,0,0,0,5],[0,1,0,0,-5],[1,0,0,0,5],[1,1,0,0,-5]];perimeter=orthogonalPerimeter;outlineConnect=0;targetShapes=umlLifeline;portConstraint=eastwest;newEdgeStyle={&quot;curved&quot;:0,&quot;rounded&quot;:0};fontFamily=宋体;fontSize=18;" vertex="1" parent="7xC3x3erYgO6L5aWRIEA-6">
          <mxGeometry x="45" y="267.5" width="10" height="112.5" as="geometry" />
        </mxCell>
        <mxCell id="7xC3x3erYgO6L5aWRIEA-9" value="&lt;span&gt;申请租赁车辆&lt;/span&gt;" style="html=1;verticalAlign=bottom;endArrow=block;curved=0;rounded=0;entryX=0;entryY=0;entryDx=0;entryDy=5;fontFamily=宋体;fontSize=18;" edge="1" parent="1" source="7xC3x3erYgO6L5aWRIEA-4" target="7xC3x3erYgO6L5aWRIEA-7">
          <mxGeometry relative="1" as="geometry">
            <mxPoint x="1015" y="1082.5" as="sourcePoint" />
          </mxGeometry>
        </mxCell>
        <mxCell id="7xC3x3erYgO6L5aWRIEA-10" value="租赁成功" style="html=1;verticalAlign=bottom;endArrow=open;dashed=1;endSize=8;curved=0;rounded=0;fontFamily=宋体;fontSize=18;" edge="1" parent="1">
          <mxGeometry relative="1" as="geometry">
            <mxPoint x="875" y="926.81" as="targetPoint" />
            <mxPoint x="1085" y="926.81" as="sourcePoint" />
            <mxPoint as="offset" />
          </mxGeometry>
        </mxCell>
        <mxCell id="7xC3x3erYgO6L5aWRIEA-11" value="租赁失败（资质不符）" style="html=1;verticalAlign=bottom;endArrow=open;dashed=1;endSize=8;curved=0;rounded=0;fontFamily=宋体;fontSize=18;" edge="1" parent="1">
          <mxGeometry relative="1" as="geometry">
            <mxPoint x="875" y="967.4999999999999" as="targetPoint" />
            <mxPoint x="1085" y="967.4999999999999" as="sourcePoint" />
          </mxGeometry>
        </mxCell>
        <mxCell id="7xC3x3erYgO6L5aWRIEA-12" value="发起还车" style="html=1;verticalAlign=bottom;endArrow=block;curved=0;rounded=0;entryX=0;entryY=0;entryDx=0;entryDy=5;exitX=1;exitY=0;exitDx=0;exitDy=5;exitPerimeter=0;fontFamily=宋体;fontSize=18;" edge="1" parent="1" source="7xC3x3erYgO6L5aWRIEA-5" target="7xC3x3erYgO6L5aWRIEA-8">
          <mxGeometry relative="1" as="geometry">
            <mxPoint x="930" y="1142.5" as="sourcePoint" />
          </mxGeometry>
        </mxCell>
        <mxCell id="7xC3x3erYgO6L5aWRIEA-13" value="赔偿通知（含金额）" style="html=1;verticalAlign=bottom;endArrow=open;dashed=1;endSize=8;curved=0;rounded=0;fontFamily=宋体;fontSize=18;" edge="1" parent="1">
          <mxGeometry relative="1" as="geometry">
            <mxPoint x="875" y="1187.5" as="targetPoint" />
            <mxPoint x="1085" y="1187.5" as="sourcePoint" />
            <mxPoint as="offset" />
          </mxGeometry>
        </mxCell>
        <mxCell id="7xC3x3erYgO6L5aWRIEA-14" value="alt" style="shape=umlFrame;whiteSpace=wrap;html=1;pointerEvents=0;recursiveResize=0;container=1;collapsible=0;width=51;dashed=1;height=18;fontSize=18;fontFamily=宋体;dashPattern=1 1;" vertex="1" parent="1">
          <mxGeometry x="835" y="1057.5" width="300" height="145" as="geometry" />
        </mxCell>
        <mxCell id="7xC3x3erYgO6L5aWRIEA-15" value="" style="line;strokeWidth=1;dashed=1;labelPosition=center;verticalLabelPosition=bottom;align=left;verticalAlign=top;spacingLeft=20;spacingTop=15;html=1;whiteSpace=wrap;fontSize=18;fontFamily=宋体;" vertex="1" parent="7xC3x3erYgO6L5aWRIEA-14">
          <mxGeometry y="90" width="287" height="10" as="geometry" />
        </mxCell>
        <mxCell id="7xC3x3erYgO6L5aWRIEA-16" value="结算账单（费用+押金）" style="html=1;verticalAlign=bottom;endArrow=open;dashed=1;endSize=8;curved=0;rounded=0;fontFamily=宋体;fontSize=18;" edge="1" parent="7xC3x3erYgO6L5aWRIEA-14">
          <mxGeometry relative="1" as="geometry">
            <mxPoint x="38.5" y="70" as="targetPoint" />
            <mxPoint x="248.5" y="70" as="sourcePoint" />
          </mxGeometry>
        </mxCell>
      </root>
    </mxGraphModel>
  </diagram>
  <diagram id="3OSk-LbwokpKUyl7D7ks" name="图3-6">
    <mxGraphModel dx="1546" dy="836" grid="1" gridSize="10" guides="1" tooltips="1" connect="1" arrows="1" fold="1" page="1" pageScale="1" pageWidth="1200" pageHeight="1920" math="0" shadow="0">
      <root>
        <mxCell id="0" />
        <mxCell id="1" parent="0" />
        <mxCell id="86FY9bNCNJEyI9Q44Tig-3" value="用户" style="shape=umlLifeline;perimeter=lifelinePerimeter;whiteSpace=wrap;html=1;container=1;dropTarget=0;collapsible=0;recursiveResize=0;outlineConnect=0;portConstraint=eastwest;newEdgeStyle={&quot;curved&quot;:0,&quot;rounded&quot;:0};fontSize=16;fontStyle=0;fontFamily=宋体;" vertex="1" parent="1">
          <mxGeometry x="320" y="350" width="100" height="560" as="geometry" />
        </mxCell>
        <mxCell id="86FY9bNCNJEyI9Q44Tig-4" value="" style="html=1;points=[[0,0,0,0,5],[0,1,0,0,-5],[1,0,0,0,5],[1,1,0,0,-5]];perimeter=orthogonalPerimeter;outlineConnect=0;targetShapes=umlLifeline;portConstraint=eastwest;newEdgeStyle={&quot;curved&quot;:0,&quot;rounded&quot;:0};fontFamily=宋体;fontSize=16;" vertex="1" parent="86FY9bNCNJEyI9Q44Tig-3">
          <mxGeometry x="45" y="67.5" width="10" height="92.5" as="geometry" />
        </mxCell>
        <mxCell id="86FY9bNCNJEyI9Q44Tig-5" value="" style="html=1;points=[[0,0,0,0,5],[0,1,0,0,-5],[1,0,0,0,5],[1,1,0,0,-5]];perimeter=orthogonalPerimeter;outlineConnect=0;targetShapes=umlLifeline;portConstraint=eastwest;newEdgeStyle={&quot;curved&quot;:0,&quot;rounded&quot;:0};fontFamily=宋体;fontSize=16;" vertex="1" parent="86FY9bNCNJEyI9Q44Tig-3">
          <mxGeometry x="45" y="299.5" width="10" height="112.5" as="geometry" />
        </mxCell>
        <mxCell id="86FY9bNCNJEyI9Q44Tig-20" value="" style="html=1;points=[[0,0,0,0,5],[0,1,0,0,-5],[1,0,0,0,5],[1,1,0,0,-5]];perimeter=orthogonalPerimeter;outlineConnect=0;targetShapes=umlLifeline;portConstraint=eastwest;newEdgeStyle={&quot;curved&quot;:0,&quot;rounded&quot;:0};fontFamily=宋体;fontSize=16;" vertex="1" parent="86FY9bNCNJEyI9Q44Tig-3">
          <mxGeometry x="45" y="190" width="10" height="40" as="geometry" />
        </mxCell>
        <mxCell id="86FY9bNCNJEyI9Q44Tig-6" value="系统" style="shape=umlLifeline;perimeter=lifelinePerimeter;whiteSpace=wrap;html=1;container=1;dropTarget=0;collapsible=0;recursiveResize=0;outlineConnect=0;portConstraint=eastwest;newEdgeStyle={&quot;curved&quot;:0,&quot;rounded&quot;:0};fontSize=16;fontStyle=0;fontFamily=宋体;" vertex="1" parent="1">
          <mxGeometry x="557" y="350" width="100" height="560" as="geometry" />
        </mxCell>
        <mxCell id="86FY9bNCNJEyI9Q44Tig-7" value="" style="html=1;points=[[0,0,0,0,5],[0,1,0,0,-5],[1,0,0,0,5],[1,1,0,0,-5]];perimeter=orthogonalPerimeter;outlineConnect=0;targetShapes=umlLifeline;portConstraint=eastwest;newEdgeStyle={&quot;curved&quot;:0,&quot;rounded&quot;:0};fontFamily=宋体;fontSize=16;" vertex="1" parent="86FY9bNCNJEyI9Q44Tig-6">
          <mxGeometry x="45" y="67.5" width="10" height="92.5" as="geometry" />
        </mxCell>
        <mxCell id="86FY9bNCNJEyI9Q44Tig-8" value="" style="html=1;points=[[0,0,0,0,5],[0,1,0,0,-5],[1,0,0,0,5],[1,1,0,0,-5]];perimeter=orthogonalPerimeter;outlineConnect=0;targetShapes=umlLifeline;portConstraint=eastwest;newEdgeStyle={&quot;curved&quot;:0,&quot;rounded&quot;:0};fontFamily=宋体;fontSize=16;" vertex="1" parent="86FY9bNCNJEyI9Q44Tig-6">
          <mxGeometry x="45" y="180" width="10" height="232" as="geometry" />
        </mxCell>
        <mxCell id="86FY9bNCNJEyI9Q44Tig-9" value="&lt;span&gt;登录并查看订单列表&lt;/span&gt;" style="html=1;verticalAlign=bottom;endArrow=block;curved=0;rounded=0;entryX=0;entryY=0;entryDx=0;entryDy=5;fontFamily=宋体;fontSize=16;" edge="1" parent="1" source="86FY9bNCNJEyI9Q44Tig-4" target="86FY9bNCNJEyI9Q44Tig-7">
          <mxGeometry relative="1" as="geometry">
            <mxPoint x="515" y="612.5" as="sourcePoint" />
          </mxGeometry>
        </mxCell>
        <mxCell id="86FY9bNCNJEyI9Q44Tig-11" value="展示订单视图" style="html=1;verticalAlign=bottom;endArrow=open;dashed=1;endSize=8;curved=0;rounded=0;fontFamily=宋体;fontSize=16;" edge="1" parent="1">
          <mxGeometry relative="1" as="geometry">
            <mxPoint x="375" y="497.4999999999999" as="targetPoint" />
            <mxPoint x="585" y="497.4999999999999" as="sourcePoint" />
          </mxGeometry>
        </mxCell>
        <mxCell id="86FY9bNCNJEyI9Q44Tig-13" value="通知最终处理结果" style="html=1;verticalAlign=bottom;endArrow=open;dashed=1;endSize=8;curved=0;rounded=0;fontFamily=宋体;fontSize=16;" edge="1" parent="1">
          <mxGeometry relative="1" as="geometry">
            <mxPoint x="375" y="749.5" as="targetPoint" />
            <mxPoint x="585" y="749.5" as="sourcePoint" />
          </mxGeometry>
        </mxCell>
        <mxCell id="86FY9bNCNJEyI9Q44Tig-14" value="alt" style="shape=umlFrame;whiteSpace=wrap;html=1;pointerEvents=0;recursiveResize=0;container=1;collapsible=0;width=51;dashed=1;height=18;fontSize=16;fontFamily=宋体;dashPattern=1 1;" vertex="1" parent="1">
          <mxGeometry x="335" y="619.5" width="515" height="150.5" as="geometry" />
        </mxCell>
        <mxCell id="86FY9bNCNJEyI9Q44Tig-31" value="返回审批结果" style="text;html=1;align=center;verticalAlign=middle;resizable=0;points=[];autosize=1;strokeColor=none;fillColor=none;fontFamily=宋体;fontSize=16;" vertex="1" parent="86FY9bNCNJEyI9Q44Tig-14">
          <mxGeometry x="332" y="78.5" width="120" height="30" as="geometry" />
        </mxCell>
        <mxCell id="86FY9bNCNJEyI9Q44Tig-30" style="rounded=0;orthogonalLoop=1;jettySize=auto;html=1;dashed=1;endArrow=open;endFill=0;fontFamily=宋体;fontSize=16;" edge="1" parent="86FY9bNCNJEyI9Q44Tig-14">
          <mxGeometry relative="1" as="geometry">
            <mxPoint x="473" y="108.5" as="sourcePoint" />
            <mxPoint x="277" y="108.5" as="targetPoint" />
          </mxGeometry>
        </mxCell>
        <mxCell id="86FY9bNCNJEyI9Q44Tig-17" value="管理员" style="shape=umlLifeline;perimeter=lifelinePerimeter;whiteSpace=wrap;html=1;container=1;dropTarget=0;collapsible=0;recursiveResize=0;outlineConnect=0;portConstraint=eastwest;newEdgeStyle={&quot;curved&quot;:0,&quot;rounded&quot;:0};fontSize=16;fontStyle=0;fontFamily=宋体;" vertex="1" parent="1">
          <mxGeometry x="763" y="350" width="100" height="560" as="geometry" />
        </mxCell>
        <mxCell id="86FY9bNCNJEyI9Q44Tig-19" value="" style="html=1;points=[[0,0,0,0,5],[0,1,0,0,-5],[1,0,0,0,5],[1,1,0,0,-5]];perimeter=orthogonalPerimeter;outlineConnect=0;targetShapes=umlLifeline;portConstraint=eastwest;newEdgeStyle={&quot;curved&quot;:0,&quot;rounded&quot;:0};fontFamily=宋体;fontSize=16;" vertex="1" parent="86FY9bNCNJEyI9Q44Tig-17">
          <mxGeometry x="45" y="280" width="10" height="112.5" as="geometry" />
        </mxCell>
        <mxCell id="86FY9bNCNJEyI9Q44Tig-26" style="rounded=0;orthogonalLoop=1;jettySize=auto;html=1;fontFamily=宋体;fontSize=16;" edge="1" parent="1" source="86FY9bNCNJEyI9Q44Tig-20" target="86FY9bNCNJEyI9Q44Tig-8">
          <mxGeometry relative="1" as="geometry" />
        </mxCell>
        <mxCell id="86FY9bNCNJEyI9Q44Tig-27" value="操作订单（查看/筛选/变更））" style="text;html=1;align=center;verticalAlign=middle;resizable=0;points=[];autosize=1;strokeColor=none;fillColor=none;fontFamily=宋体;fontSize=16;" vertex="1" parent="1">
          <mxGeometry x="366" y="528" width="250" height="30" as="geometry" />
        </mxCell>
        <mxCell id="86FY9bNCNJEyI9Q44Tig-28" style="rounded=0;orthogonalLoop=1;jettySize=auto;html=1;fontFamily=宋体;fontSize=16;" edge="1" parent="1" source="86FY9bNCNJEyI9Q44Tig-8" target="86FY9bNCNJEyI9Q44Tig-19">
          <mxGeometry relative="1" as="geometry" />
        </mxCell>
        <mxCell id="86FY9bNCNJEyI9Q44Tig-29" value="发起审批流程" style="text;html=1;align=center;verticalAlign=middle;resizable=0;points=[];autosize=1;strokeColor=none;fillColor=none;fontFamily=宋体;fontSize=16;" vertex="1" parent="1">
          <mxGeometry x="667" y="618" width="120" height="30" as="geometry" />
        </mxCell>
      </root>
    </mxGraphModel>
  </diagram>
  <diagram id="0H47ArI3rjZ3kBbP8sQZ" name="图3-7">
    <mxGraphModel dx="1546" dy="836" grid="1" gridSize="10" guides="1" tooltips="1" connect="1" arrows="1" fold="1" page="1" pageScale="1" pageWidth="1200" pageHeight="1920" math="0" shadow="0">
      <root>
        <mxCell id="0" />
        <mxCell id="1" parent="0" />
      </root>
    </mxGraphModel>
  </diagram>
</mxfile>
